<svg xmlns="http://www.w3.org/2000/svg" width="419.913" height="90" viewBox="0 0 419.913 90">
  <g id="LOGO_copy" data-name="LOGO copy" transform="translate(-633 -2761)">
    <g id="UKALA_logo" data-name="UKALA logo" transform="translate(622.498 2746.86)">
      <g id="Group_2" data-name="Group 2">
        <g id="Group_1" data-name="Group 1">
          <path id="Path_1" data-name="Path 1" d="M38.265,59.563c0,7.518-4.563,11.124-13.86,11.124S10.5,67.081,10.5,59.563V42.934h9.382V57.7c0,2.771,0,6.226,4.563,6.226,4.435,0,4.435-3.455,4.435-6.226V42.934h9.383Z" fill="#fff"/>
          <path id="Path_2" data-name="Path 2" d="M43.255,42.934h9.383v9.34h.085l8.359-9.34H72.64L61.594,53.528,74.431,70.043H62.746L55.24,59.488l-2.6,2.543v8.011H43.255Z" fill="#fff"/>
          <path id="Path_3" data-name="Path 3" d="M19.132,84.241h6.441l7.788,19.9H26.531l-.9-2.843h-6.8l-.958,2.843h-6.62Zm5.181,12.792L22.4,90.9h-.061L20.27,97.033Z" fill="#fff"/>
          <path id="Path_4" data-name="Path 4" d="M34.829,84.241h6.59v14.8h9.467v5.1H34.829Z" fill="#fff"/>
          <path id="Path_5" data-name="Path 5" d="M59.632,84.241h6.441l7.788,19.9H67.032l-.9-2.843h-6.8l-.959,2.843H51.754Zm5.182,12.792L62.9,90.9h-.061L60.77,97.033Z" fill="#fff"/>
          <path id="Path_6" data-name="Path 6" d="M10.543,37.884,42.512,14.14,74.5,37.9Z" fill="#fff"/>
          <rect id="Rectangle_1" data-name="Rectangle 1" width="63.96" height="3.534" transform="translate(10.543 76.458)" fill="#fff"/>
        </g>
      </g>
    </g>
    <text id="UK_ASSOCIATION_OF_LETTING_AGENTS" data-name="UK ASSOCIATION OF LETTING AGENTS" transform="matrix(1, 0, 0, 1, 721.913, 2829.202)" fill="#fff" font-size="17.78" font-family="Poppins-Bold, Poppins" font-weight="700"><tspan x="0" y="0">UK ASSOCIATION </tspan><tspan y="0" font-family="Poppins-Light, Poppins" font-weight="300">OF </tspan><tspan y="0">LETTING AGENTS</tspan></text>
  </g>
</svg>
