<svg xmlns="http://www.w3.org/2000/svg" viewBox="0 0 100 100" width="100" height="100">
	<style>
		tspan { white-space:pre }
		.shp0 { fill: #f39022 } 
	</style>
	<g id="Layer">
		<path id="Layer" fill-rule="evenodd" class="shp0" d="M14.33 85.67C11.64 82.95 11.64 78.56 14.33 75.83L33.61 56.56C26.83 45.34 28.25 30.5 37.91 20.84C49.27 9.48 67.8 9.48 79.16 20.84C90.52 32.2 90.52 50.73 79.16 62.09C73.5 67.78 66.03 70.61 58.55 70.61C53.3 70.61 48.09 69.2 43.45 66.39L24.17 85.67C22.8 87.03 21.03 87.7 19.25 87.7C17.47 87.7 15.69 87.03 14.33 85.67L14.33 85.67ZM39.89 22.81C29.58 33.08 29.58 49.83 39.9 60.14C50.2 70.41 66.95 70.44 77.23 60.14C87.5 49.83 87.5 33.08 77.23 22.81C72.09 17.66 65.31 15.08 58.56 15.08C51.78 15.08 45.03 17.66 39.89 22.81L39.89 22.81ZM16.3 77.81C14.7 79.42 14.7 82.08 16.33 83.75C17.95 85.36 20.61 85.36 22.22 83.75L41.14 64.83C40.03 64 38.95 63.11 37.95 62.11C36.95 61.08 36.05 60.02 35.22 58.91L18.32 75.79C19.89 74.25 22.6 74.27 24.17 75.83C25.78 77.45 25.78 80.11 24.17 81.72C23.36 82.53 22.28 82.95 21.22 82.95C20.17 82.95 19.08 82.53 18.28 81.72C16.67 80.11 16.67 77.44 18.28 75.83L16.31 77.81L16.3 77.81ZM18.28 75.83L18.32 75.79C18.31 75.8 18.29 75.82 18.28 75.83ZM20.22 77.81C19.7 78.33 19.7 79.22 20.2 79.78C20.75 80.31 21.64 80.31 22.17 79.78C22.72 79.22 22.72 78.36 22.17 77.81C21.92 77.53 21.56 77.39 21.2 77.39C20.83 77.39 20.47 77.56 20.22 77.81L20.22 77.81Z" />
		<path id="Layer" fill-rule="evenodd" class="shp0" d="M58.53 65.06C52.5 65.06 46.44 62.78 41.83 58.14C32.64 48.94 32.64 33.94 41.83 24.75C51.03 15.55 66.03 15.55 75.22 24.75C84.42 33.94 84.42 48.94 75.22 58.14C70.61 62.75 64.58 65.06 58.53 65.06L58.53 65.06ZM43.8 26.72C35.7 34.86 35.7 48.08 43.78 56.2C51.92 64.31 65.14 64.31 73.25 56.2C81.36 48.06 81.36 34.83 73.25 26.72C69.19 22.67 63.86 20.64 58.53 20.64C53.19 20.64 47.86 22.67 43.8 26.72L43.8 26.72Z" />
		<path id="Layer" class="shp0" d="M47.03 42.86L56.75 42.86L56.75 52.58C56.75 53.36 57.36 53.97 58.14 53.97C58.92 53.97 59.53 53.36 59.53 52.58L59.53 42.86L69.25 42.86C70.03 42.86 70.64 42.25 70.64 41.47C70.64 40.69 70.03 40.08 69.25 40.08L59.53 40.08L59.53 30.36C59.53 29.58 58.92 28.96 58.14 28.96C57.36 28.96 56.75 29.57 56.75 30.36L56.75 40.08L47.03 40.08C46.25 40.08 45.64 40.69 45.64 41.47C45.64 42.25 46.28 42.86 47.03 42.86L47.03 42.86Z" />
	</g>
</svg>