<svg xmlns="http://www.w3.org/2000/svg" viewBox="0 0 1200 1200" width="1200" height="1200">
	<style>
		tspan { white-space:pre }
		.shp0 { fill: #ff8e36 } 
	</style>
	<g id="Layer 1">
		<path id="&lt;Compound Path&gt;" fill-rule="evenodd" class="shp0" d="M93.19 219.42L1106.77 219.42C1157.25 219.42 1199.95 262.12 1199.95 312.61L1199.95 887.35C1199.95 937.83 1157.25 980.53 1106.77 980.53L93.19 980.53C42.7 980.53 0 937.83 0 887.35L0 312.61C0 262.12 38.81 219.42 93.19 219.42ZM784.46 572.81L1153.41 914.57C1157.3 906.79 1161.19 895.16 1161.19 887.38L1161.19 312.64C1161.19 297.12 1153.41 285.45 1145.68 273.83L784.5 572.84L784.46 572.81ZM73.78 937.87C77.67 941.76 85.45 941.76 93.19 941.76L1106.77 941.76C1110.66 941.76 1118.44 941.76 1126.17 937.87L757.22 600L613.55 720.37C605.77 728.15 594.14 728.15 586.36 720.37L442.68 600L73.73 937.87L73.78 937.87ZM38.81 887.39C38.81 895.17 38.81 906.79 46.59 914.58L415.55 572.82L54.37 273.8C42.7 285.47 38.85 297.1 38.85 312.61L38.85 887.35L38.81 887.39ZM598.04 681.56L1102.88 258.28L97.04 258.28L597.99 681.56L598.04 681.56Z" />
	</g>
</svg>