<svg xmlns="http://www.w3.org/2000/svg" viewBox="0 0 984 1360" width="984" height="1360">
	<style>
		tspan { white-space:pre }
		.shp0 { fill: none;stroke: #ffffff;stroke-width: 10 } 
	</style>
	<g id="Layer 1">
		<g id="&lt;Group&gt;">
			<path id="&lt;Path&gt;" class="shp0" d="M2102.39 792.83L2473.36 519.69L2844.56 792.97" />
			<path id="&lt;Path&gt;" class="shp0" d="M2102.39 768.11L2473.36 494.96L2844.56 768.25" />
			<path id="&lt;Path&gt;" class="shp0" d="M2102.39 743.38L2473.36 470.24L2844.56 743.52" />
			<path id="&lt;Path&gt;" class="shp0" d="M2102.39 718.66L2473.36 445.52L2844.56 718.8" />
			<path id="&lt;Path&gt;" class="shp0" d="M2102.39 693.93L2473.36 420.79L2844.56 694.07" />
			<path id="&lt;Path&gt;" class="shp0" d="M2102.39 669.21L2473.36 396.07L2844.56 669.35" />
			<path id="&lt;Path&gt;" class="shp0" d="M2102.39 644.48L2473.36 371.34L2844.56 644.62" />
			<path id="&lt;Path&gt;" class="shp0" d="M2102.39 619.76L2473.36 346.62L2844.56 619.9" />
			<path id="&lt;Path&gt;" class="shp0" d="M2102.39 595.03L2473.36 321.89L2844.56 595.17" />
			<path id="&lt;Path&gt;" class="shp0" d="M2102.39 570.31L2473.36 297.17L2844.56 570.45" />
			<path id="&lt;Path&gt;" class="shp0" d="M2102.39 545.58L2473.36 272.44L2844.56 545.72" />
			<path id="&lt;Path&gt;" class="shp0" d="M2102.39 520.86L2473.36 247.72L2844.56 521" />
			<path id="&lt;Path&gt;" class="shp0" d="M2102.39 496.13L2473.36 222.99L2844.56 496.28" />
			<path id="&lt;Path&gt;" class="shp0" d="M2102.39 471.41L2473.36 198.27L2844.56 471.55" />
			<path id="&lt;Path&gt;" class="shp0" d="M2102.39 446.69L2473.36 173.54L2844.56 446.83" />
			<path id="&lt;Path&gt;" class="shp0" d="M2102.39 421.96L2473.36 148.82L2844.56 422.1" />
			<path id="&lt;Path&gt;" class="shp0" d="M2102.39 397.24L2473.36 124.1L2844.56 397.38" />
			<path id="&lt;Path&gt;" class="shp0" d="M2102.39 372.51L2473.36 99.37L2844.56 372.65" />
			<path id="&lt;Path&gt;" class="shp0" d="M2102.39 347.79L2473.36 74.65L2844.56 347.93" />
			<path id="&lt;Path&gt;" class="shp0" d="M2102.39 323.06L2473.36 49.92L2844.56 323.2" />
			<path id="&lt;Path&gt;" class="shp0" d="M2102.39 298.34L2473.36 25.2L2844.56 298.48" />
			<path id="&lt;Path&gt;" class="shp0" d="M2102.39 273.61L2473.36 0.47L2844.56 273.75" />
			<path id="&lt;Path&gt;" class="shp0" d="M2102.39 248.89L2473.36 -24.25L2844.56 249.03" />
			<path id="&lt;Path&gt;" class="shp0" d="M2102.39 224.16L2473.36 -48.98L2844.56 224.3" />
			<path id="&lt;Path&gt;" class="shp0" d="M2102.39 199.44L2473.36 -73.7L2844.56 199.58" />
			<path id="&lt;Path&gt;" class="shp0" d="M2102.39 174.71L2473.36 -98.43L2844.56 174.86" />
			<path id="&lt;Path&gt;" class="shp0" d="M2102.39 149.99L2473.36 -123.15L2844.56 150.13" />
			<path id="&lt;Path&gt;" class="shp0" d="M2102.39 125.27L2473.36 -147.88L2844.56 125.41" />
			<path id="&lt;Path&gt;" class="shp0" d="M2102.39 100.54L2473.36 -172.6L2844.56 100.68" />
			<path id="&lt;Path&gt;" class="shp0" d="M2102.39 75.82L2473.36 -197.32L2844.56 75.96" />
			<path id="&lt;Path&gt;" class="shp0" d="M2102.39 51.09L2473.36 -222.05L2844.56 51.23" />
			<path id="&lt;Path&gt;" class="shp0" d="M2102.39 26.37L2473.36 -246.77L2844.56 26.51" />
			<path id="&lt;Path&gt;" class="shp0" d="M2102.39 1.64L2473.36 -271.5L2844.56 1.78" />
			<path id="&lt;Path&gt;" class="shp0" d="M2102.39 -23.08L2473.36 -296.22L2844.56 -22.94" />
			<path id="&lt;Path&gt;" class="shp0" d="M2102.39 -47.81L2473.36 -320.95L2844.56 -47.67" />
			<path id="&lt;Path&gt;" class="shp0" d="M2102.39 -72.53L2473.36 -345.67L2844.56 -72.39" />
			<path id="&lt;Path&gt;" class="shp0" d="M2102.39 -97.26L2473.36 -370.4L2844.56 -97.12" />
			<path id="&lt;Path&gt;" class="shp0" d="M2102.39 -121.98L2473.36 -395.12L2844.56 -121.84" />
			<path id="&lt;Path&gt;" class="shp0" d="M2102.39 -146.71L2473.36 -419.85L2844.56 -146.56" />
			<path id="&lt;Path&gt;" class="shp0" d="M2102.39 -171.43L2473.36 -444.57L2844.56 -171.29" />
			<path id="&lt;Path&gt;" class="shp0" d="M2102.39 -196.15L2473.36 -469.3L2844.56 -196.01" />
			<path id="&lt;Path&gt;" class="shp0" d="M2102.39 -220.88L2473.36 -494.02L2844.56 -220.74" />
		</g>
	</g>
</svg>