<svg xmlns="http://www.w3.org/2000/svg" viewBox="0 0 1200 1200" width="1200" height="1200">
	<style>
		tspan { white-space:pre }
		.shp0 { fill: #ff8e36 } 
	</style>
	<g id="Layer 1">
		<path id="&lt;Compound Path&gt;" fill-rule="evenodd" class="shp0" d="M956.39 844.84C956.39 930.06 886.78 998.45 802.78 998.45C717.55 998.45 649.16 930.06 649.16 844.84C649.16 759.61 718.78 691.22 802.78 691.22C888 691.22 956.39 759.62 956.39 844.84ZM914.39 844.79C914.39 783.57 864 733.18 802.78 733.18C741.56 733.18 691.17 783.57 691.17 844.79C691.17 906.01 741.56 956.4 802.78 956.4C865.21 956.4 914.39 906.01 914.39 844.79Z" />
		<path id="&lt;Compound Path&gt;" fill-rule="evenodd" class="shp0" d="M1136.39 873.61C1143.61 878.39 1148.39 885.61 1147.17 895.22C1142.34 926.44 1133.95 956.44 1121.95 985.22C1118.34 992.44 1109.95 998.44 1101.56 997.22L1048.78 993.61L1044 1004.39L1069.26 1047.52C1074.05 1055.95 1074.05 1065.52 1068.05 1072.73C1045.27 1097.95 1018.83 1120.73 990.05 1139.95C981.61 1144.78 972.05 1143.56 964.83 1137.56L930.05 1105.17L919.26 1111.17L915.66 1162.78C915.66 1171.17 909.66 1178.39 901.26 1180.78C870.05 1189.22 838.87 1194 807.66 1194C799.22 1194 790.83 1189.17 788.44 1180.78L770.44 1130.39L758.44 1130.39L733.22 1171.17C728.44 1178.35 718.83 1181.95 710.44 1179.56C678 1169.95 648 1155.56 619.22 1137.56C612.04 1132.78 608.44 1123.17 610.83 1114.78L625.22 1065.56L615.61 1058.35L570 1077.56C561.61 1081.17 552 1078.78 546 1071.56C524.39 1046.39 507.61 1018.78 494.39 988.78C490.78 980.39 491.95 970.78 499.17 964.78L533.95 933.56L529.17 921.56L483.56 913.17C475.17 910.78 468 903.56 466.78 895.17C464.39 877.17 463.17 862.78 463.17 848.39C463.17 832.83 464.34 814.83 467.95 795.61C469.12 787.22 476.34 780.05 484.73 778.83L530.34 771.61L532.73 759.61L500.34 728.39C493.17 722.39 491.95 712.78 495.56 704.39C508.78 673.17 528 644.39 550.78 619.17C556.78 612 567.61 609.61 576 614.39L613.26 634.78L622.87 626.39L614.48 576C613.31 567.61 616.87 560.39 624.09 555.61C651.65 537.61 681.65 524.39 712.87 516C721.26 512.39 730.87 516 735.65 524.39L758.43 560.39L770.43 560.39L787.22 516C789.65 508.78 798.04 502.78 806.43 502.78C840.04 502.78 872.43 507.56 904.83 517.17C913.22 519.61 919.22 526.78 919.22 536.39L919.22 582L931.22 585.61L966 558C973.22 553.17 982.78 552 990 556.78C1018.78 575.95 1045.22 598.78 1068 625.17C1074 632.39 1075.21 643.17 1069.21 650.39L1044 684L1051.12 694.83L1100.34 693.61C1108.78 693.61 1115.95 698.39 1119.56 705.61C1133.95 735.61 1142.39 766.83 1147.17 799.22C1148.34 807.61 1142.34 817.22 1133.95 820.83L1093.17 837.61L1093.17 849.61L1136.39 873.61L1136.39 873.61ZM1089.6 955.22C1095.6 938.39 1100.39 920.39 1103.95 902.34L1063.17 879.56C1057.17 876 1052.39 870 1052.39 862.78L1051.17 824.39C1051.17 814.78 1056 807.61 1064.39 804L1106.34 790.78C1102.73 771.56 1097.95 753.56 1090.73 736.78L1043.95 738C1036.73 738 1029.56 734.39 1025.95 728.39L1004.34 696C999.56 688.78 1000.78 679.22 1005.56 672L1029.56 639.61C1016.34 625.22 1000.73 612 983.95 600L951.56 626.39C946.73 631.22 939.56 632.39 932.34 630L896.34 616.78C887.95 614.34 881.95 605.95 881.95 597.56L881.95 553.17C862.73 548.39 843.56 546 824.34 544.78L807.56 589.17C805.12 596.39 796.73 602.39 788.34 602.39L749.95 602.39C742.73 602.39 735.56 598.78 731.95 592.78L711.56 560.39C693.56 566.39 676.73 573.56 659.95 583.17L667.17 631.17C668.34 638.39 665.95 645.61 659.95 650.39L631.17 675.61C623.95 681.61 614.39 682.78 607.17 678L571.17 657.61C558 673.22 548.39 690.05 538.78 706.83L568.78 735.61C573.56 740.44 576 747.61 574.78 754.83L567.56 792.05C566.39 801.61 559.17 807.61 550.78 808.83L506.39 814.83C505.22 826.83 504 837.61 504 847.22L504 873.66L546 880.88C553.22 882.1 559.22 886.88 561.61 894.1L576 930.1C578.39 938.49 576 946.88 570 952.88L535.22 982.88C543.61 999.66 554.44 1016.49 565.22 1030.88L607.22 1012.88C614.39 1010.49 621.61 1011.66 627.61 1015.27L658.83 1038.05C664.83 1044.05 668.44 1052.44 666.04 1060.83L652.83 1108.83C669.61 1118.44 687.61 1126.83 705.61 1132.83L728.39 1095.61C733.17 1089.61 739.17 1086 746.39 1086L784.78 1086C793.22 1086 801.61 1090.83 804 1099.22L822 1150.74C840 1149.56 858 1147.13 876 1142.35L879.61 1094.35C879.61 1087.17 884.39 1081.17 890.39 1077.56L924 1059.56C932.39 1055.96 942 1057.17 948 1063.17L981.61 1094.39C998.44 1082.39 1014 1069.17 1027.22 1054.78L1003.22 1018.78C999.61 1012.78 999.61 1004.39 1002 998.39L1017.61 963.61C1021.22 955.22 1029.61 950.39 1038 951.61L1089.61 955.22L1089.6 955.22Z" />
		<path id="&lt;Path&gt;" class="shp0" d="M502.78 1191.61L73.21 1191.61C61.21 1191.61 50.43 1180.83 50.43 1168.83L50.38 31.22C50.38 19.22 61.17 8.44 73.17 8.44L794.39 8.44C800.39 8.44 806.39 10.83 810 14.44L1018.77 218.44C1023.56 223.22 1025.99 228.05 1025.99 235.22L1025.99 444C1025.99 456 1015.21 466.78 1003.21 466.78C991.21 466.78 980.43 455.99 980.43 444L980.39 244.77L784.77 54L96 54L96 1146L502.77 1146C514.77 1146 525.55 1156.78 525.55 1168.78C525.6 1180.78 514.77 1191.6 502.77 1191.6L502.78 1191.61Z" />
		<path id="&lt;Path&gt;" class="shp0" d="M230.39 398.39L711.61 398.39C726 398.39 738 386.39 738 372C738 357.61 726 345.61 711.61 345.61L230.39 345.61C216 345.61 204 357.61 204 372C204 386.39 216 398.39 230.39 398.39Z" />
		<path id="&lt;Path&gt;" class="shp0" d="M232.78 253.22L714 253.22C728.39 253.22 740.39 241.22 740.39 226.83C740.39 212.44 728.39 200.44 714 200.44L232.78 200.4C218.39 200.4 206.39 212.4 206.39 226.79C206.39 241.22 218.39 253.22 232.78 253.22L232.78 253.22Z" />
		<path id="&lt;Path&gt;" class="shp0" d="M232.78 547.22L514.78 547.22C529.17 547.22 541.17 535.22 541.17 520.83C541.17 506.44 529.17 494.44 514.78 494.44L232.78 494.4C218.39 494.4 206.39 506.4 206.39 520.79C206.39 535.22 218.39 547.22 232.78 547.22Z" />
		<path id="&lt;Path&gt;" class="shp0" d="M408 700.78L231.61 700.78C217.22 700.78 205.22 688.78 205.22 674.39C205.22 660 217.22 648 231.61 648L408 648C422.39 648 434.39 660 434.39 674.39C434.39 688.78 422.39 700.78 408 700.78Z" />
	</g>
</svg>